<svg xmlns="http://www.w3.org/2000/svg" width="24" height="24.111" viewBox="0 0 24 24.111">
  <g>
    <path d="M22.711,4.729,21.3,3.315,19.135,5.476a9.958,9.958,0,0,0-4.179-1.4V2H17V0H11V2h1.952V4.073A10.065,10.065,0,0,0,4.4,11H9v2H3.973c0,.03,0,.062,0,.092H0v2H3.969C4,15.4,4.045,15.7,4.1,16H11v2H4.716c.014.031.029.061.043.092H2v2H5.934A10.033,10.033,0,1,0,20.75,6.69ZM14.132,16.074A1.493,1.493,0,0,1,13,13.6V7.416h2v5.938a1.5,1.5,0,0,1-.868,2.72Z"/>
    <rect y="8.092" width="3" height="2"/>
  </g>
</svg>
